<mxfile><diagram id="YTYDQbNs1svMBCf1cnkA" name="Page-1"><mxGraphModel dx="1483" dy="1815" grid="1" gridSize="10" guides="1" tooltips="1" connect="1" arrows="1" fold="1" page="1" pageScale="1" pageWidth="850" pageHeight="1100" math="0" shadow="0"><root><mxCell id="0"/><mxCell id="1" parent="0"/><mxCell id="2" value="Person" style="swimlane;childLayout=stackLayout;horizontal=1;startSize=30;horizontalStack=0;rounded=1;fontSize=14;fontStyle=0;strokeWidth=2;resizeParent=0;resizeLast=1;shadow=0;dashed=0;align=center;" parent="1" vertex="1"><mxGeometry x="120" y="310" width="160" height="120" as="geometry"><mxRectangle x="300" y="290" width="80" height="30" as="alternateBounds"/></mxGeometry></mxCell><mxCell id="3" value="name&#10;gender&#10;birth date (year)&#10;death date (year)" style="align=left;strokeColor=none;fillColor=none;spacingLeft=4;fontSize=12;verticalAlign=top;resizable=0;rotatable=0;part=1;" parent="2" vertex="1"><mxGeometry y="30" width="160" height="90" as="geometry"/></mxCell><mxCell id="46" style="edgeStyle=none;html=1;exitX=0.5;exitY=0;exitDx=0;exitDy=0;entryX=0.5;entryY=1;entryDx=0;entryDy=0;" parent="1" source="4" target="22" edge="1"><mxGeometry relative="1" as="geometry"/></mxCell><mxCell id="4" value="Organization" style="swimlane;childLayout=stackLayout;horizontal=1;startSize=30;horizontalStack=0;rounded=1;fontSize=14;fontStyle=0;strokeWidth=2;resizeParent=0;resizeLast=1;shadow=0;dashed=0;align=center;" parent="1" vertex="1"><mxGeometry x="1050" y="310" width="160" height="120" as="geometry"/></mxCell><mxCell id="5" value="name&#10;" style="align=left;strokeColor=none;fillColor=none;spacingLeft=4;fontSize=12;verticalAlign=top;resizable=0;rotatable=0;part=1;" parent="4" vertex="1"><mxGeometry y="30" width="160" height="90" as="geometry"/></mxCell><mxCell id="43" style="edgeStyle=none;html=1;exitX=1;exitY=0;exitDx=0;exitDy=0;entryX=0;entryY=0.5;entryDx=0;entryDy=0;" parent="1" source="7" target="13" edge="1"><mxGeometry relative="1" as="geometry"/></mxCell><mxCell id="7" value="Pursuit" style="swimlane;childLayout=stackLayout;horizontal=1;startSize=30;horizontalStack=0;rounded=1;fontSize=14;fontStyle=0;strokeWidth=2;resizeParent=0;resizeLast=1;shadow=0;dashed=0;align=center;" parent="1" vertex="1"><mxGeometry x="440" y="160" width="160" height="120" as="geometry"/></mxCell><mxCell id="8" value="begin_date&#10;end_date&#10;" style="align=left;strokeColor=none;fillColor=none;spacingLeft=4;fontSize=12;verticalAlign=top;resizable=0;rotatable=0;part=1;" parent="7" vertex="1"><mxGeometry y="30" width="160" height="90" as="geometry"/></mxCell><mxCell id="84" style="edgeStyle=none;html=1;exitX=1;exitY=0;exitDx=0;exitDy=0;entryX=0;entryY=1;entryDx=0;entryDy=0;" parent="1" source="167" target="22" edge="1"><mxGeometry relative="1" as="geometry"><mxPoint x="830" y="280" as="sourcePoint"/></mxGeometry></mxCell><mxCell id="12" value="Occupation" style="swimlane;childLayout=stackLayout;horizontal=1;startSize=30;horizontalStack=0;rounded=1;fontSize=14;fontStyle=0;strokeWidth=2;resizeParent=0;resizeLast=1;shadow=0;dashed=0;align=center;" parent="1" vertex="1"><mxGeometry x="710" y="30" width="160" height="120" as="geometry"/></mxCell><mxCell id="13" value="description" style="align=left;strokeColor=none;fillColor=none;spacingLeft=4;fontSize=12;verticalAlign=top;resizable=0;rotatable=0;part=1;" parent="12" vertex="1"><mxGeometry y="30" width="160" height="90" as="geometry"/></mxCell><mxCell id="51" style="edgeStyle=none;html=1;exitX=0.5;exitY=0;exitDx=0;exitDy=0;entryX=0.5;entryY=1;entryDx=0;entryDy=0;" parent="1" source="14" target="20" edge="1"><mxGeometry relative="1" as="geometry"><mxPoint x="320" y="60" as="targetPoint"/></mxGeometry></mxCell><mxCell id="14" value="Participation" style="swimlane;childLayout=stackLayout;horizontal=1;startSize=30;horizontalStack=0;rounded=1;fontSize=14;fontStyle=0;strokeWidth=2;resizeParent=0;resizeLast=1;shadow=0;dashed=0;align=center;" parent="1" vertex="1"><mxGeometry x="120" y="100" width="160" height="120" as="geometry"/></mxCell><mxCell id="15" value="description (presenter, &#10;organizer, etc)&#10;&#10;" style="align=left;strokeColor=none;fillColor=none;spacingLeft=4;fontSize=12;verticalAlign=top;resizable=0;rotatable=0;part=1;" parent="14" vertex="1"><mxGeometry y="30" width="160" height="90" as="geometry"/></mxCell><mxCell id="48" style="edgeStyle=none;html=1;exitX=1;exitY=0.25;exitDx=0;exitDy=0;entryX=0.5;entryY=0;entryDx=0;entryDy=0;" parent="1" source="20" target="21" edge="1"><mxGeometry relative="1" as="geometry"><Array as="points"><mxPoint x="1130" y="-67"/></Array></mxGeometry></mxCell><mxCell id="19" value="Event" style="swimlane;childLayout=stackLayout;horizontal=1;startSize=30;horizontalStack=0;rounded=1;fontSize=14;fontStyle=0;strokeWidth=2;resizeParent=0;resizeLast=1;shadow=0;dashed=0;align=center;" parent="1" vertex="1"><mxGeometry x="120" y="-120" width="160" height="120" as="geometry"/></mxCell><mxCell id="20" value="description (cortona, other)&#10;title&#10;date&#10;" style="align=left;strokeColor=none;fillColor=none;spacingLeft=4;fontSize=12;verticalAlign=top;resizable=0;rotatable=0;part=1;" parent="19" vertex="1"><mxGeometry y="30" width="160" height="90" as="geometry"/></mxCell><mxCell id="21" value="Place" style="swimlane;childLayout=stackLayout;horizontal=1;startSize=30;horizontalStack=0;rounded=1;fontSize=14;fontStyle=0;strokeWidth=2;resizeParent=0;resizeLast=1;shadow=0;dashed=0;align=center;" parent="1" vertex="1"><mxGeometry x="1050" y="30" width="160" height="120" as="geometry"/></mxCell><mxCell id="22" value="place_id&#10;name" style="align=left;strokeColor=none;fillColor=none;spacingLeft=4;fontSize=12;verticalAlign=top;resizable=0;rotatable=0;part=1;" parent="21" vertex="1"><mxGeometry y="30" width="160" height="90" as="geometry"/></mxCell><mxCell id="83" style="edgeStyle=none;html=1;exitX=0.5;exitY=0;exitDx=0;exitDy=0;entryX=0;entryY=0.5;entryDx=0;entryDy=0;" parent="1" source="27" target="20" edge="1"><mxGeometry relative="1" as="geometry"><Array as="points"><mxPoint x="-90" y="-45"/></Array></mxGeometry></mxCell><mxCell id="27" value="Workshop" style="swimlane;childLayout=stackLayout;horizontal=1;startSize=30;horizontalStack=0;rounded=1;fontSize=14;fontStyle=0;strokeWidth=2;resizeParent=0;resizeLast=1;shadow=0;dashed=0;align=center;" parent="1" vertex="1"><mxGeometry x="-170" y="100" width="160" height="120" as="geometry"/></mxCell><mxCell id="28" value="name&#10;description (workshop, talk, &#10;body work, concert)&#10;abstract" style="align=left;strokeColor=none;fillColor=none;spacingLeft=4;fontSize=12;verticalAlign=top;resizable=0;rotatable=0;part=1;" parent="27" vertex="1"><mxGeometry y="30" width="160" height="90" as="geometry"/></mxCell><mxCell id="35" value="Publication" style="swimlane;childLayout=stackLayout;horizontal=1;startSize=30;horizontalStack=0;rounded=1;fontSize=14;fontStyle=0;strokeWidth=2;resizeParent=0;resizeLast=1;shadow=0;dashed=0;align=center;" parent="1" vertex="1"><mxGeometry x="120" y="690" width="160" height="120" as="geometry"/></mxCell><mxCell id="36" value="name&#10;date&#10;publishing_house " style="align=left;strokeColor=none;fillColor=none;spacingLeft=4;fontSize=12;verticalAlign=top;resizable=0;rotatable=0;part=1;" parent="35" vertex="1"><mxGeometry y="30" width="160" height="90" as="geometry"/></mxCell><mxCell id="124" style="edgeStyle=none;html=1;exitX=0.5;exitY=0;exitDx=0;exitDy=0;entryX=0;entryY=1;entryDx=0;entryDy=0;" parent="1" source="40" target="3" edge="1"><mxGeometry relative="1" as="geometry"/></mxCell><mxCell id="40" value="Is_mentioned" style="swimlane;childLayout=stackLayout;horizontal=1;startSize=30;horizontalStack=0;rounded=1;fontSize=14;fontStyle=0;strokeWidth=2;resizeParent=0;resizeLast=1;shadow=0;dashed=0;align=center;" parent="1" vertex="1"><mxGeometry x="-230" y="620" width="160" height="120" as="geometry"/></mxCell><mxCell id="41" value="description (positive, negative)" style="align=left;strokeColor=none;fillColor=none;spacingLeft=4;fontSize=12;verticalAlign=top;resizable=0;rotatable=0;part=1;" parent="40" vertex="1"><mxGeometry y="30" width="160" height="90" as="geometry"/></mxCell><mxCell id="45" style="edgeStyle=none;html=1;entryX=0;entryY=0.5;entryDx=0;entryDy=0;exitX=1;exitY=0.25;exitDx=0;exitDy=0;" parent="1" target="21" edge="1" source="13"><mxGeometry relative="1" as="geometry"><mxPoint x="830" y="90" as="sourcePoint"/></mxGeometry></mxCell><mxCell id="66" style="edgeStyle=none;html=1;exitX=1;exitY=1;exitDx=0;exitDy=0;entryX=0;entryY=0;entryDx=0;entryDy=0;fontSize=17;" parent="1" source="13" target="4" edge="1"><mxGeometry relative="1" as="geometry"/></mxCell><mxCell id="85" style="edgeStyle=none;html=1;exitX=0;exitY=0.5;exitDx=0;exitDy=0;entryX=1;entryY=0;entryDx=0;entryDy=0;" parent="1" source="8" target="2" edge="1"><mxGeometry relative="1" as="geometry"/></mxCell><mxCell id="86" value="&lt;font style=&quot;font-size: 17px;&quot;&gt;1&lt;/font&gt;" style="text;html=1;strokeColor=none;fillColor=none;align=center;verticalAlign=middle;whiteSpace=wrap;rounded=0;" parent="1" vertex="1"><mxGeometry x="180" width="60" height="30" as="geometry"/></mxCell><mxCell id="87" style="edgeStyle=none;html=1;exitX=0.5;exitY=1;exitDx=0;exitDy=0;" parent="1" source="15" target="2" edge="1"><mxGeometry relative="1" as="geometry"/></mxCell><mxCell id="88" value="&lt;font style=&quot;font-size: 17px;&quot;&gt;1&lt;/font&gt;" style="text;html=1;strokeColor=none;fillColor=none;align=center;verticalAlign=middle;whiteSpace=wrap;rounded=0;" parent="1" vertex="1"><mxGeometry x="230" y="280" width="60" height="30" as="geometry"/></mxCell><mxCell id="89" value="&lt;font style=&quot;font-size: 17px;&quot;&gt;1&lt;/font&gt;" style="text;html=1;strokeColor=none;fillColor=none;align=center;verticalAlign=middle;whiteSpace=wrap;rounded=0;" parent="1" vertex="1"><mxGeometry x="330" y="280" width="60" height="30" as="geometry"/></mxCell><mxCell id="90" value="&lt;font style=&quot;font-size: 17px;&quot;&gt;0...n&lt;/font&gt;" style="text;html=1;strokeColor=none;fillColor=none;align=center;verticalAlign=middle;whiteSpace=wrap;rounded=0;" parent="1" vertex="1"><mxGeometry x="380" y="210" width="60" height="30" as="geometry"/></mxCell><mxCell id="91" value="&lt;font style=&quot;font-size: 17px;&quot;&gt;0...n&lt;/font&gt;" style="text;html=1;strokeColor=none;fillColor=none;align=center;verticalAlign=middle;whiteSpace=wrap;rounded=0;" parent="1" vertex="1"><mxGeometry x="210" y="220" width="60" height="30" as="geometry"/></mxCell><mxCell id="92" value="&lt;font style=&quot;font-size: 17px;&quot;&gt;1...n&lt;/font&gt;" style="text;html=1;strokeColor=none;fillColor=none;align=center;verticalAlign=middle;whiteSpace=wrap;rounded=0;" parent="1" vertex="1"><mxGeometry x="200" y="70" width="60" height="30" as="geometry"/></mxCell><mxCell id="93" value="&lt;font style=&quot;font-size: 17px;&quot;&gt;1&lt;/font&gt;" style="text;html=1;strokeColor=none;fillColor=none;align=center;verticalAlign=middle;whiteSpace=wrap;rounded=0;" parent="1" vertex="1"><mxGeometry x="1120" width="60" height="30" as="geometry"/></mxCell><mxCell id="94" value="&lt;font style=&quot;font-size: 17px;&quot;&gt;1...n&lt;/font&gt;" style="text;html=1;strokeColor=none;fillColor=none;align=center;verticalAlign=middle;whiteSpace=wrap;rounded=0;" parent="1" vertex="1"><mxGeometry x="270" y="-110" width="60" height="30" as="geometry"/></mxCell><mxCell id="96" value="&lt;font style=&quot;font-size: 17px;&quot;&gt;1&lt;/font&gt;" style="text;html=1;strokeColor=none;fillColor=none;align=center;verticalAlign=middle;whiteSpace=wrap;rounded=0;" parent="1" vertex="1"><mxGeometry x="160" y="355" width="60" height="30" as="geometry"/></mxCell><mxCell id="97" value="&lt;font style=&quot;font-size: 17px;&quot;&gt;0...n&lt;/font&gt;" style="text;html=1;strokeColor=none;fillColor=none;align=center;verticalAlign=middle;whiteSpace=wrap;rounded=0;" parent="1" vertex="1"><mxGeometry x="-90" y="230" width="60" height="30" as="geometry"/></mxCell><mxCell id="99" value="&lt;font style=&quot;font-size: 17px;&quot;&gt;1&lt;/font&gt;" style="text;html=1;strokeColor=none;fillColor=none;align=center;verticalAlign=middle;whiteSpace=wrap;rounded=0;" parent="1" vertex="1"><mxGeometry x="70" y="-75" width="60" height="30" as="geometry"/></mxCell><mxCell id="100" value="&lt;font style=&quot;font-size: 17px;&quot;&gt;1&lt;/font&gt;" style="text;html=1;strokeColor=none;fillColor=none;align=center;verticalAlign=middle;whiteSpace=wrap;rounded=0;" parent="1" vertex="1"><mxGeometry x="-140" y="70" width="60" height="30" as="geometry"/></mxCell><mxCell id="104" value="&lt;font style=&quot;font-size: 17px;&quot;&gt;0...n&lt;/font&gt;" style="text;html=1;strokeColor=none;fillColor=none;align=center;verticalAlign=middle;whiteSpace=wrap;rounded=0;" parent="1" vertex="1"><mxGeometry x="590" y="250" width="60" height="30" as="geometry"/></mxCell><mxCell id="105" value="&lt;font style=&quot;font-size: 17px;&quot;&gt;0...1&lt;/font&gt;" style="text;html=1;strokeColor=none;fillColor=none;align=center;verticalAlign=middle;whiteSpace=wrap;rounded=0;" parent="1" vertex="1"><mxGeometry x="610" y="325" width="60" height="30" as="geometry"/></mxCell><mxCell id="106" value="&lt;font style=&quot;font-size: 17px;&quot;&gt;0...1&lt;/font&gt;" style="text;html=1;strokeColor=none;fillColor=none;align=center;verticalAlign=middle;whiteSpace=wrap;rounded=0;" parent="1" vertex="1"><mxGeometry x="620" y="80" width="60" height="30" as="geometry"/></mxCell><mxCell id="107" value="&lt;font style=&quot;font-size: 17px;&quot;&gt;0...n&lt;/font&gt;" style="text;html=1;strokeColor=none;fillColor=none;align=center;verticalAlign=middle;whiteSpace=wrap;rounded=0;" parent="1" vertex="1"><mxGeometry x="550" y="130" width="60" height="30" as="geometry"/></mxCell><mxCell id="108" value="&lt;font style=&quot;font-size: 17px;&quot;&gt;0...1&lt;/font&gt;" style="text;html=1;strokeColor=none;fillColor=none;align=center;verticalAlign=middle;whiteSpace=wrap;rounded=0;" parent="1" vertex="1"><mxGeometry x="1000" y="63" width="60" height="30" as="geometry"/></mxCell><mxCell id="109" value="&lt;font style=&quot;font-size: 17px;&quot;&gt;0...1&lt;/font&gt;" style="text;html=1;strokeColor=none;fillColor=none;align=center;verticalAlign=middle;whiteSpace=wrap;rounded=0;" parent="1" vertex="1"><mxGeometry x="990" y="270" width="60" height="30" as="geometry"/></mxCell><mxCell id="110" value="&lt;font style=&quot;font-size: 17px;&quot;&gt;0...n&lt;/font&gt;" style="text;html=1;strokeColor=none;fillColor=none;align=center;verticalAlign=middle;whiteSpace=wrap;rounded=0;" parent="1" vertex="1"><mxGeometry x="890" y="20" width="60" height="30" as="geometry"/></mxCell><mxCell id="111" value="&lt;font style=&quot;font-size: 17px;&quot;&gt;0...n&lt;/font&gt;" style="text;html=1;strokeColor=none;fillColor=none;align=center;verticalAlign=middle;whiteSpace=wrap;rounded=0;" parent="1" vertex="1"><mxGeometry x="790" y="150" width="60" height="30" as="geometry"/></mxCell><mxCell id="112" value="&lt;font style=&quot;font-size: 17px;&quot;&gt;1&lt;/font&gt;" style="text;html=1;strokeColor=none;fillColor=none;align=center;verticalAlign=middle;whiteSpace=wrap;rounded=0;" parent="1" vertex="1"><mxGeometry x="1130" y="150" width="60" height="30" as="geometry"/></mxCell><mxCell id="113" value="&lt;font style=&quot;font-size: 17px;&quot;&gt;0...n&lt;/font&gt;" style="text;html=1;strokeColor=none;fillColor=none;align=center;verticalAlign=middle;whiteSpace=wrap;rounded=0;" parent="1" vertex="1"><mxGeometry x="1120" y="250" width="60" height="30" as="geometry"/></mxCell><mxCell id="114" value="&lt;font style=&quot;font-size: 17px;&quot;&gt;0...1&lt;/font&gt;" style="text;html=1;strokeColor=none;fillColor=none;align=center;verticalAlign=middle;whiteSpace=wrap;rounded=0;" parent="1" vertex="1"><mxGeometry x="1030" y="156" width="60" height="30" as="geometry"/></mxCell><mxCell id="115" value="&lt;font style=&quot;font-size: 17px;&quot;&gt;0...n&lt;/font&gt;" style="text;html=1;strokeColor=none;fillColor=none;align=center;verticalAlign=middle;whiteSpace=wrap;rounded=0;" parent="1" vertex="1"><mxGeometry x="780" y="250" width="60" height="30" as="geometry"/></mxCell><mxCell id="116" value="&lt;font style=&quot;font-size: 17px;&quot;&gt;0...n&lt;/font&gt;" style="text;html=1;strokeColor=none;fillColor=none;align=center;verticalAlign=middle;whiteSpace=wrap;rounded=0;" parent="1" vertex="1"><mxGeometry x="818" y="330" width="60" height="30" as="geometry"/></mxCell><mxCell id="119" value="&lt;font style=&quot;font-size: 17px;&quot;&gt;1&lt;/font&gt;" style="text;html=1;strokeColor=none;fillColor=none;align=center;verticalAlign=middle;whiteSpace=wrap;rounded=0;" parent="1" vertex="1"><mxGeometry x="280" y="430" width="60" height="30" as="geometry"/></mxCell><mxCell id="120" value="&lt;font style=&quot;font-size: 17px;&quot;&gt;0...n&lt;/font&gt;" style="text;html=1;strokeColor=none;fillColor=none;align=center;verticalAlign=middle;whiteSpace=wrap;rounded=0;" parent="1" vertex="1"><mxGeometry x="290" y="520" width="60" height="30" as="geometry"/></mxCell><mxCell id="125" style="edgeStyle=none;html=1;exitX=1;exitY=0.25;exitDx=0;exitDy=0;entryX=0;entryY=0.25;entryDx=0;entryDy=0;" parent="1" source="41" target="36" edge="1"><mxGeometry relative="1" as="geometry"/></mxCell><mxCell id="126" value="&lt;font style=&quot;font-size: 17px;&quot;&gt;0...n&lt;/font&gt;" style="text;html=1;strokeColor=none;fillColor=none;align=center;verticalAlign=middle;whiteSpace=wrap;rounded=0;" parent="1" vertex="1"><mxGeometry x="-60" y="520" width="60" height="30" as="geometry"/></mxCell><mxCell id="127" value="&lt;font style=&quot;font-size: 17px;&quot;&gt;0...n&lt;/font&gt;" style="text;html=1;strokeColor=none;fillColor=none;align=center;verticalAlign=middle;whiteSpace=wrap;rounded=0;" parent="1" vertex="1"><mxGeometry x="50" y="610" width="60" height="30" as="geometry"/></mxCell><mxCell id="128" value="&lt;font style=&quot;font-size: 17px;&quot;&gt;1&lt;/font&gt;" style="text;html=1;strokeColor=none;fillColor=none;align=center;verticalAlign=middle;whiteSpace=wrap;rounded=0;" parent="1" vertex="1"><mxGeometry x="80" y="445" width="60" height="30" as="geometry"/></mxCell><mxCell id="129" value="&lt;font style=&quot;font-size: 17px;&quot;&gt;1&lt;/font&gt;" style="text;html=1;strokeColor=none;fillColor=none;align=center;verticalAlign=middle;whiteSpace=wrap;rounded=0;" parent="1" vertex="1"><mxGeometry x="220" y="440" width="60" height="30" as="geometry"/></mxCell><mxCell id="133" style="edgeStyle=none;html=1;exitX=0.5;exitY=0;exitDx=0;exitDy=0;entryX=1;entryY=0.25;entryDx=0;entryDy=0;" parent="1" source="131" target="3" edge="1"><mxGeometry relative="1" as="geometry"/></mxCell><mxCell id="131" value="Connection" style="swimlane;childLayout=stackLayout;horizontal=1;startSize=30;horizontalStack=0;rounded=1;fontSize=14;fontStyle=0;strokeWidth=2;resizeParent=0;resizeLast=1;shadow=0;dashed=0;align=center;" parent="1" vertex="1"><mxGeometry x="380" y="570" width="160" height="120" as="geometry"/></mxCell><mxCell id="132" value="description" style="align=left;strokeColor=none;fillColor=none;spacingLeft=4;fontSize=12;verticalAlign=top;resizable=0;rotatable=0;part=1;" parent="131" vertex="1"><mxGeometry y="30" width="160" height="90" as="geometry"/></mxCell><mxCell id="178" value="Publication" style="swimlane;childLayout=stackLayout;horizontal=1;startSize=30;horizontalStack=0;rounded=1;fontSize=14;fontStyle=0;strokeWidth=2;resizeParent=0;resizeLast=1;shadow=0;dashed=0;align=center;" vertex="1" parent="131"><mxGeometry y="120" width="160" as="geometry"/></mxCell><mxCell id="179" value="name&#10;date&#10;publishing_house " style="align=left;strokeColor=none;fillColor=none;spacingLeft=4;fontSize=12;verticalAlign=top;resizable=0;rotatable=0;part=1;" vertex="1" parent="178"><mxGeometry width="160" as="geometry"/></mxCell><mxCell id="134" style="edgeStyle=none;html=1;exitX=0;exitY=0.5;exitDx=0;exitDy=0;entryX=1;entryY=1;entryDx=0;entryDy=0;" parent="1" source="132" target="3" edge="1"><mxGeometry relative="1" as="geometry"/></mxCell><mxCell id="135" value="&lt;font style=&quot;font-size: 17px;&quot;&gt;0...n&lt;/font&gt;" style="text;html=1;strokeColor=none;fillColor=none;align=center;verticalAlign=middle;whiteSpace=wrap;rounded=0;" parent="1" vertex="1"><mxGeometry x="590" y="445" width="60" height="30" as="geometry"/></mxCell><mxCell id="136" value="&lt;font style=&quot;font-size: 17px;&quot;&gt;0...n&lt;/font&gt;" style="text;html=1;strokeColor=none;fillColor=none;align=center;verticalAlign=middle;whiteSpace=wrap;rounded=0;" parent="1" vertex="1"><mxGeometry x="470" y="540" width="60" height="30" as="geometry"/></mxCell><mxCell id="137" value="&lt;font style=&quot;font-size: 17px;&quot;&gt;1&lt;/font&gt;" style="text;html=1;strokeColor=none;fillColor=none;align=center;verticalAlign=middle;whiteSpace=wrap;rounded=0;" parent="1" vertex="1"><mxGeometry x="350" y="340" width="60" height="30" as="geometry"/></mxCell><mxCell id="138" value="&lt;font style=&quot;font-size: 17px;&quot;&gt;1&lt;/font&gt;" style="text;html=1;strokeColor=none;fillColor=none;align=center;verticalAlign=middle;whiteSpace=wrap;rounded=0;" parent="1" vertex="1"><mxGeometry x="350" y="400" width="60" height="30" as="geometry"/></mxCell><mxCell id="145" value="held at" style="edgeLabel;resizable=0;html=1;align=center;verticalAlign=middle;" parent="1" connectable="0" vertex="1"><mxGeometry x="-20.004389921017264" y="-50.0015322442693" as="geometry"><mxPoint x="2" y="4" as="offset"/></mxGeometry></mxCell><mxCell id="146" value="takes place in" style="edgeLabel;resizable=0;html=1;align=center;verticalAlign=middle;" parent="1" connectable="0" vertex="1"><mxGeometry x="810.0037168242973" y="-94.99796445983509" as="geometry"><mxPoint x="11" y="20" as="offset"/></mxGeometry></mxCell><mxCell id="147" value="given by" style="edgeLabel;resizable=0;html=1;align=center;verticalAlign=middle;" parent="1" connectable="0" vertex="1"><mxGeometry x="30.00371682429727" y="370.0020355401649" as="geometry"><mxPoint x="9" y="3" as="offset"/></mxGeometry></mxCell><mxCell id="148" value="participates in" style="edgeLabel;resizable=0;html=1;align=center;verticalAlign=middle;" parent="1" connectable="0" vertex="1"><mxGeometry x="200.00371682429727" y="50.00203554016491" as="geometry"/></mxCell><mxCell id="149" value="is participant" style="edgeLabel;resizable=0;html=1;align=center;verticalAlign=middle;" parent="1" connectable="0" vertex="1"><mxGeometry x="200.00371682429727" y="285.0020355401649" as="geometry"><mxPoint x="24" y="-18" as="offset"/></mxGeometry></mxCell><mxCell id="150" value="mentions" style="edgeLabel;resizable=0;html=1;align=center;verticalAlign=middle;" parent="1" connectable="0" vertex="1"><mxGeometry x="-109.99628317570273" y="535.0020355401649" as="geometry"><mxPoint x="9" y="3" as="offset"/></mxGeometry></mxCell><mxCell id="151" value="mentioned in" style="edgeLabel;resizable=0;html=1;align=center;verticalAlign=middle;" parent="1" connectable="0" vertex="1"><mxGeometry x="190.00371682429727" y="770.0020355401649" as="geometry"><mxPoint x="-197" y="-27" as="offset"/></mxGeometry></mxCell><mxCell id="153" value="Source" style="edgeLabel;resizable=0;html=1;align=center;verticalAlign=middle;" parent="1" connectable="0" vertex="1"><mxGeometry x="420.00371682429727" y="480.0020355401649" as="geometry"><mxPoint x="9" y="3" as="offset"/></mxGeometry></mxCell><mxCell id="154" value="Target" style="edgeLabel;resizable=0;html=1;align=center;verticalAlign=middle;" parent="1" connectable="0" vertex="1"><mxGeometry x="330.00371682429727" y="510.0020355401649" as="geometry"><mxPoint x="9" as="offset"/></mxGeometry></mxCell><mxCell id="155" value="is pursued by&amp;nbsp;" style="edgeLabel;resizable=0;html=1;align=center;verticalAlign=middle;" parent="1" connectable="0" vertex="1"><mxGeometry x="390.00371682429727" y="270.0020355401649" as="geometry"><mxPoint x="9" y="3" as="offset"/></mxGeometry></mxCell><mxCell id="156" value="member of" style="edgeLabel;resizable=0;html=1;align=center;verticalAlign=middle;" parent="1" connectable="0" vertex="1"><mxGeometry x="670.0037168242973" y="190.0020355401649" as="geometry"><mxPoint x="9" y="3" as="offset"/></mxGeometry></mxCell><mxCell id="158" value="takes place in" style="edgeLabel;resizable=0;html=1;align=center;verticalAlign=middle;" parent="1" connectable="0" vertex="1"><mxGeometry x="1120.0037168242973" y="200.0020355401649" as="geometry"><mxPoint x="11" y="20" as="offset"/></mxGeometry></mxCell><mxCell id="159" value="takes place in" style="edgeLabel;resizable=0;html=1;align=center;verticalAlign=middle;" parent="1" connectable="0" vertex="1"><mxGeometry x="930.0037168242973" y="70.00203554016491" as="geometry"><mxPoint x="11" y="20" as="offset"/></mxGeometry></mxCell><mxCell id="160" value="takes place in" style="edgeLabel;resizable=0;html=1;align=center;verticalAlign=middle;" parent="1" connectable="0" vertex="1"><mxGeometry x="880.0037168242973" y="225.0020355401649" as="geometry"><mxPoint x="11" y="20" as="offset"/></mxGeometry></mxCell><mxCell id="161" value="educated at" style="edgeLabel;resizable=0;html=1;align=center;verticalAlign=middle;" parent="1" connectable="0" vertex="1"><mxGeometry x="930.0037168242973" y="310.0020355401649" as="geometry"><mxPoint x="11" y="20" as="offset"/></mxGeometry></mxCell><mxCell id="162" value="takes place in" style="edgeLabel;resizable=0;html=1;align=center;verticalAlign=middle;" parent="1" connectable="0" vertex="1"><mxGeometry x="880.0037168242973" y="165.0020355401649" as="geometry"><mxPoint x="11" y="20" as="offset"/></mxGeometry></mxCell><mxCell id="163" value="pursued occupation" style="edgeLabel;resizable=0;html=1;align=center;verticalAlign=middle;" parent="1" connectable="0" vertex="1"><mxGeometry x="610.0037168242973" y="130.0020355401649" as="geometry"><mxPoint x="9" y="3" as="offset"/></mxGeometry></mxCell><mxCell id="171" style="edgeStyle=none;html=1;exitX=0;exitY=0.5;exitDx=0;exitDy=0;entryX=1.023;entryY=0.169;entryDx=0;entryDy=0;entryPerimeter=0;" edge="1" parent="1" source="164" target="3"><mxGeometry relative="1" as="geometry"/></mxCell><mxCell id="164" value="Study" style="swimlane;childLayout=stackLayout;horizontal=1;startSize=30;horizontalStack=0;rounded=1;fontSize=14;fontStyle=0;strokeWidth=2;resizeParent=0;resizeLast=1;shadow=0;dashed=0;align=center;" vertex="1" parent="1"><mxGeometry x="440" y="310" width="160" height="120" as="geometry"/></mxCell><mxCell id="165" value="begin_date&#10;end_date&#10;" style="align=left;strokeColor=none;fillColor=none;spacingLeft=4;fontSize=12;verticalAlign=top;resizable=0;rotatable=0;part=1;" vertex="1" parent="164"><mxGeometry y="30" width="160" height="90" as="geometry"/></mxCell><mxCell id="167" value="Subject" style="swimlane;childLayout=stackLayout;horizontal=1;startSize=30;horizontalStack=0;rounded=1;fontSize=14;fontStyle=0;strokeWidth=2;resizeParent=0;resizeLast=1;shadow=0;dashed=0;align=center;" vertex="1" parent="1"><mxGeometry x="710" y="310" width="160" height="120" as="geometry"/></mxCell><mxCell id="168" value="description" style="align=left;strokeColor=none;fillColor=none;spacingLeft=4;fontSize=12;verticalAlign=top;resizable=0;rotatable=0;part=1;" vertex="1" parent="167"><mxGeometry y="30" width="160" height="90" as="geometry"/></mxCell><mxCell id="170" style="edgeStyle=none;html=1;exitX=1;exitY=0.25;exitDx=0;exitDy=0;entryX=0;entryY=0.25;entryDx=0;entryDy=0;" edge="1" parent="1" source="168" target="5"><mxGeometry relative="1" as="geometry"/></mxCell><mxCell id="172" style="edgeStyle=none;html=1;exitX=1;exitY=0.25;exitDx=0;exitDy=0;entryX=0;entryY=0;entryDx=0;entryDy=0;" edge="1" parent="1" source="8" target="5"><mxGeometry relative="1" as="geometry"/></mxCell><mxCell id="173" style="edgeStyle=none;html=1;exitX=1;exitY=0.25;exitDx=0;exitDy=0;entryX=0;entryY=0.25;entryDx=0;entryDy=0;" edge="1" parent="1" source="165" target="168"><mxGeometry relative="1" as="geometry"/></mxCell><mxCell id="176" style="edgeStyle=none;html=1;exitX=0.5;exitY=0;exitDx=0;exitDy=0;entryX=0.5;entryY=1;entryDx=0;entryDy=0;" edge="1" parent="1" source="174" target="28"><mxGeometry relative="1" as="geometry"/></mxCell><mxCell id="174" value="Presentation" style="swimlane;childLayout=stackLayout;horizontal=1;startSize=30;horizontalStack=0;rounded=1;fontSize=14;fontStyle=0;strokeWidth=2;resizeParent=0;resizeLast=1;shadow=0;dashed=0;align=center;" vertex="1" parent="1"><mxGeometry x="-170" y="310" width="160" height="120" as="geometry"/></mxCell><mxCell id="175" value="description" style="align=left;strokeColor=none;fillColor=none;spacingLeft=4;fontSize=12;verticalAlign=top;resizable=0;rotatable=0;part=1;" vertex="1" parent="174"><mxGeometry y="30" width="160" height="90" as="geometry"/></mxCell><mxCell id="177" style="edgeStyle=none;html=1;exitX=1;exitY=0.25;exitDx=0;exitDy=0;entryX=0;entryY=0.25;entryDx=0;entryDy=0;" edge="1" parent="1" source="175" target="3"><mxGeometry relative="1" as="geometry"/></mxCell><mxCell id="185" style="edgeStyle=none;html=1;exitX=0.5;exitY=0;exitDx=0;exitDy=0;entryX=0.5;entryY=1;entryDx=0;entryDy=0;" edge="1" parent="1" source="180" target="3"><mxGeometry relative="1" as="geometry"/></mxCell><mxCell id="180" value="Publishing" style="swimlane;childLayout=stackLayout;horizontal=1;startSize=30;horizontalStack=0;rounded=1;fontSize=14;fontStyle=0;strokeWidth=2;resizeParent=0;resizeLast=1;shadow=0;dashed=0;align=center;" vertex="1" parent="1"><mxGeometry x="120" y="510" width="160" height="120" as="geometry"/></mxCell><mxCell id="181" value="name&#10;" style="align=left;strokeColor=none;fillColor=none;spacingLeft=4;fontSize=12;verticalAlign=top;resizable=0;rotatable=0;part=1;" vertex="1" parent="180"><mxGeometry y="30" width="160" height="90" as="geometry"/></mxCell><mxCell id="184" style="edgeStyle=none;html=1;exitX=0.5;exitY=1;exitDx=0;exitDy=0;entryX=0.5;entryY=0;entryDx=0;entryDy=0;" edge="1" parent="1" source="181" target="35"><mxGeometry relative="1" as="geometry"/></mxCell></root></mxGraphModel></diagram></mxfile>